# xmcd CD database file
#
# Track frame offsets:
#	150
#	18871
#	39029
#	57082
#	73429
#	91110
#	109833
#	132928
#	153557
#	173101
#	196155
#	218412
#	239337
#	261271
#	283685
#
# Disc length: 4007 seconds
#
# Revision: 0
# Processed by: cddbd v1.5.2PL0 Copyright (c) Steve Scherf et al.
# Submitted via: CDex 1.70beta2
#
DISCID=ca0fa50f
DTITLE=Fernando Villalona - Mi Regreso
DYEAR=1900
DGENRE=Merengue
TTITLE0=Yo soy aquel
TTITLE1=El sol de tu mirada
TTITLE2=Sin ti
TTITLE3=Ya voy borracho
TTITLE4=Yo te amo
TTITLE5=No me digas que te vas
TTITLE6=Sin amor
TTITLE7=Solo tu
TTITLE8=Necesito tenerla
TTITLE9=No podras
TTITLE10=Confundido
TTITLE11=Mal acostumbrado
TTITLE12=Vuelve amor
TTITLE13=Dejate querer
TTITLE14=Me muero por ti (bachata)
EXTD=
EXTT0=
EXTT1=
EXTT2=
EXTT3=
EXTT4=
EXTT5=
EXTT6=
EXTT7=
EXTT8=
EXTT9=
EXTT10=
EXTT11=
EXTT12=
EXTT13=
EXTT14=
PLAYORDER=
